<svg width="140" height="22" viewBox="0 0 140 22" fill="none" xmlns="http://www.w3.org/2000/svg">
<path d="M3.87291 21.4214C1.61921 22.7232 0.000244141 21.6384 0.000244141 19.7088C0.000244141 17.6547 0.000244141 11.4913 0.000244141 11.4913C0.000244141 11.4913 0.000244141 5.32783 0.000244141 3.27369C0.000244141 1.34411 1.61821 0.25928 3.87291 1.56107C7.38302 3.58809 17.9123 9.67116 17.9123 9.67116C19.3124 10.4798 19.3124 12.5018 17.9123 13.3104C17.9123 13.3114 7.38302 19.3944 3.87291 21.4214Z" fill="#00C1FF"/>
<path d="M15.462 21.42C13.2083 22.7218 11.5894 21.6369 11.5894 19.7074C11.5894 17.6532 11.5894 11.4898 11.5894 11.4898C11.5894 11.4898 11.5894 5.32637 11.5894 3.27223C11.5894 1.34264 13.2073 0.257815 15.462 1.55961C18.8948 3.54243 29.1931 9.49191 29.1931 9.49191C30.7308 10.3799 30.7308 12.5997 29.1931 13.4877C29.1921 13.4877 18.8948 19.4372 15.462 21.42Z" fill="#BCEC30"/>
<mask id="mask0_1_2246" style="mask-type:alpha" maskUnits="userSpaceOnUse" x="11" y="0" width="20" height="22">
<path d="M15.462 21.42C13.2083 22.7218 11.5894 21.6369 11.5894 19.7074C11.5894 17.6532 11.5894 11.4898 11.5894 11.4898C11.5894 11.4898 11.5894 5.32637 11.5894 3.27223C11.5894 1.34264 13.2073 0.257815 15.462 1.55961C18.8948 3.54243 29.1931 9.49191 29.1931 9.49191C30.7308 10.3799 30.7308 12.5997 29.1931 13.4877C29.1921 13.4877 18.8948 19.4372 15.462 21.42Z" fill="#6FE4FF"/>
</mask>
<g mask="url(#mask0_1_2246)">
<g filter="url(#filter0_f_1_2246)">
<path d="M3.87328 21.4214C1.61958 22.7232 0.000610352 21.6384 0.000610352 19.7088C0.000610352 17.6547 0.000610352 11.4913 0.000610352 11.4913C0.000610352 11.4913 0.000610352 5.32783 0.000610352 3.27369C0.000610352 1.34411 1.61857 0.25928 3.87328 1.56107C7.38339 3.58809 17.9127 9.67116 17.9127 9.67116C19.3127 10.4798 19.3127 12.5018 17.9127 13.3104C17.9127 13.3114 7.38339 19.3944 3.87328 21.4214Z" fill="#99D100"/>
</g>
</g>
<path d="M37.6903 15.1582L38.0829 14.2642C38.3506 13.6563 38.8324 13.4954 39.4391 13.9424C40.5991 14.8006 42.5086 15.4264 45.0606 15.4264C47.2378 15.4264 48.1658 14.8721 48.1658 14.2106C48.1658 13.4596 47.3984 13.2629 46.1313 13.102L43.2403 12.7266C39.7604 12.2617 38.0115 11.0101 38.0115 8.82873C38.0115 6.48646 39.921 4.62695 44.3468 4.62695C46.8095 4.62695 48.3978 5.00243 49.4328 5.39579C50.5749 5.84279 50.7356 6.21826 50.7356 7.14802V8.36385C50.7356 9.11481 50.4679 9.36513 49.7362 9.36513H48.9153C48.1658 9.36513 47.9159 9.09693 47.9159 8.36385V7.9705C47.4341 7.80958 46.2384 7.57714 44.8464 7.57714C42.4016 7.57714 41.2237 8.02414 41.2237 8.77509C41.2237 9.32937 41.9376 9.65121 43.2403 9.83001L46.0778 10.2055C49.5042 10.6346 51.3245 11.6716 51.3245 14.1748C51.3245 16.7138 48.9153 18.3408 44.6144 18.3408C41.4557 18.3408 38.9216 17.3396 37.9044 16.4098C37.5475 16.0522 37.494 15.6052 37.6903 15.1582Z" fill="black"/>
<path d="M69.0263 18.1259H67.5629C66.8491 18.1259 66.6171 18.0186 66.2602 17.4822L63.5119 13.4235C63.1193 12.8692 62.8159 12.7262 61.995 12.7262H59.2468V17.1246C59.2468 17.8756 58.9791 18.1259 58.2474 18.1259H57.1945C56.445 18.1259 56.1951 17.8577 56.1951 17.1246V3.92926H55.2136C54.4641 3.92926 54.2142 3.66106 54.2142 2.92798V2.03399C54.2142 1.28303 54.4819 1.03271 55.2136 1.03271H58.2652C59.0148 1.03271 59.2646 1.30091 59.2646 2.03399V9.75811H61.7273C62.5482 9.75811 62.8338 9.63295 63.2442 9.06079L65.5463 5.50269C65.9211 4.94841 66.1531 4.84113 66.8669 4.84113H68.3303C69.1333 4.84113 69.2761 5.48481 68.83 6.14637L66.2602 10.0442C65.9925 10.4197 65.6713 10.813 65.3679 11.1349C65.6891 11.4031 66.1352 11.8501 66.3137 12.1183L69.5259 16.8564C69.9721 17.4822 69.8115 18.1259 69.0263 18.1259Z" fill="black"/>
<path d="M74.248 20.5574V19.6813C74.248 18.9304 74.5157 18.68 75.2474 18.68H76.5144C77.2818 18.68 77.6565 18.5191 77.9421 17.9112L78.1027 17.5715L72.0351 6.07472C71.6603 5.3774 71.9637 4.85889 72.7489 4.85889H74.1231C74.8369 4.85889 75.1581 4.98405 75.4258 5.50256L77.9599 10.7235C78.5488 11.9214 79.2091 13.2982 79.7267 14.4962C80.262 13.334 80.8688 11.993 81.4399 10.8308L84.0275 5.50256C84.2595 5.00193 84.6164 4.85889 85.3302 4.85889H86.7044C87.5074 4.85889 87.793 5.39528 87.4182 6.07472L80.5119 19.2164C79.7088 20.7362 78.7987 21.5766 76.7286 21.5766H75.2117C74.4978 21.5766 74.248 21.3084 74.248 20.5574Z" fill="black"/>
<path d="M106.08 11.4928C106.08 15.7125 102.957 18.3408 98.7456 18.3408C96.9253 18.3408 95.5333 17.8938 94.5518 17.3396V20.9513C94.5518 21.7023 94.2841 21.9526 93.5524 21.9526H92.4995C91.75 21.9526 91.5002 21.6844 91.5002 20.9513V7.75594H90.5187C89.7691 7.75594 89.5193 7.48774 89.5193 6.75466V5.86067C89.5193 5.10971 89.787 4.85939 90.5187 4.85939H93.0884C93.838 4.85939 94.0878 5.12759 94.0878 5.86067V5.93219C95.0872 5.27063 96.6041 4.62695 98.7456 4.62695C102.957 4.64483 106.08 7.27318 106.08 11.4928ZM102.904 11.4928C102.904 9.02541 100.923 7.64866 98.46 7.64866C96.6933 7.64866 95.2478 8.39961 94.5696 9.00753V13.996C95.2656 14.6039 96.6933 15.3549 98.46 15.3549C100.923 15.337 102.904 13.9603 102.904 11.4928Z" fill="black"/>
<path d="M122.705 10.456C122.705 11.2069 122.438 11.4573 121.706 11.4573H120.653C119.904 11.4573 119.654 11.2427 119.654 10.456C119.654 8.4892 118.904 7.61308 117.12 7.61308C115.424 7.61308 114.014 8.668 113.229 9.95535V17.1252C113.229 17.8761 112.961 18.1265 112.23 18.1265H111.177C110.427 18.1265 110.178 17.8583 110.178 17.1252V7.75612H109.196C108.446 7.75612 108.197 7.48792 108.197 6.75485V5.86085C108.197 5.1099 108.464 4.85958 109.196 4.85958H111.766C112.515 4.85958 112.765 5.12778 112.765 5.86085V6.71909C113.711 5.66417 115.157 4.64502 117.619 4.64502C121.224 4.64502 122.705 6.79061 122.705 10.456Z" fill="black"/>
<path d="M124.6 11.493C124.6 7.55944 127.919 4.64502 132.327 4.64502C136.699 4.64502 140.001 7.55944 140.001 11.493C140.001 15.4445 136.681 18.3589 132.327 18.3589C127.919 18.3589 124.6 15.4445 124.6 11.493ZM136.967 11.493C136.967 9.2044 134.95 7.54156 132.327 7.54156C129.65 7.54156 127.634 9.22228 127.634 11.493C127.634 13.7995 129.65 15.4802 132.327 15.4802C134.968 15.4802 136.967 13.7995 136.967 11.493Z" fill="black"/>
<defs>
<filter id="filter0_f_1_2246" x="-8.92884" y="-7.93727" width="36.8211" height="38.857" filterUnits="userSpaceOnUse" color-interpolation-filters="sRGB">
<feFlood flood-opacity="0" result="BackgroundImageFix"/>
<feBlend mode="normal" in="SourceGraphic" in2="BackgroundImageFix" result="shape"/>
<feGaussianBlur stdDeviation="4.46473" result="effect1_foregroundBlur_1_2246"/>
</filter>
</defs>
</svg>
